<svg xmlns="http://www.w3.org/2000/svg"  viewBox="0 0 64 64" width="64px" height="64px"><path fill="#F0F9FF" d="M 23.984375 1 A 1.0001 1.0001 0 0 0 23.292969 1.2929688 L 9.2929688 15.292969 A 1.0001 1.0001 0 0 0 9.2929688 16.707031 L 20.292969 27.707031 C 21.567895 28.981957 21.567895 31.018043 20.292969 32.292969 L 21.707031 33.707031 L 38.707031 16.707031 A 1.0001 1.0001 0 0 0 38.707031 15.292969 L 24.707031 1.2929688 A 1.0001 1.0001 0 0 0 23.984375 1 z M 24 3.4140625 L 36.585938 16 L 23.130859 29.455078 C 23.009599 28.302022 22.585899 27.171836 21.707031 26.292969 L 11.414062 16 L 24 3.4140625 z M 40.949219 18 A 1.0001 1.0001 0 0 0 40.255859 18.292969 L 11.291016 47.259766 A 1.0001 1.0001 0 0 0 11.291016 48.673828 L 25.326172 62.707031 A 1.0001 1.0001 0 0 0 26.740234 62.707031 L 55.705078 33.742188 A 1.0001 1.0001 0 0 0 55.705078 32.328125 L 41.669922 18.292969 A 1.0001 1.0001 0 0 0 40.949219 18 z M 40.962891 20.414062 L 53.583984 33.035156 L 26.033203 60.585938 L 13.412109 47.966797 L 40.962891 20.414062 z M 46.921875 31.607422 A 1.0001 1.0001 0 0 0 46.224609 33.324219 L 47.640625 34.738281 A 1.0001 1.0001 0 1 0 49.054688 33.324219 L 47.638672 31.910156 A 1.0001 1.0001 0 0 0 46.921875 31.607422 z M 43.369141 35.158203 A 1.0001 1.0001 0 0 0 42.671875 36.875 L 44.085938 38.291016 A 1.0005839 1.0005839 0 0 0 45.501953 36.876953 L 44.087891 35.462891 A 1.0001 1.0001 0 0 0 43.369141 35.158203 z M 39.816406 38.710938 A 1.0001 1.0001 0 0 0 39.119141 40.429688 L 40.533203 41.84375 A 1.0001 1.0001 0 1 0 41.947266 40.429688 L 40.533203 39.015625 A 1.0001 1.0001 0 0 0 39.816406 38.710938 z M 36.263672 42.265625 A 1.0001 1.0001 0 0 0 35.568359 43.982422 L 36.982422 45.396484 A 1.0001 1.0001 0 1 0 38.396484 43.982422 L 36.982422 42.568359 A 1.0001 1.0001 0 0 0 36.263672 42.265625 z M 32.710938 45.816406 A 1.0001 1.0001 0 0 0 32.015625 47.533203 L 33.429688 48.947266 A 1.0001 1.0001 0 1 0 34.84375 47.533203 L 33.429688 46.119141 A 1.0001 1.0001 0 0 0 32.710938 45.816406 z M 29.158203 49.369141 A 1.0001 1.0001 0 0 0 28.462891 51.087891 L 29.876953 52.501953 A 1.0005839 1.0005839 0 0 0 31.291016 51.085938 L 29.875 49.671875 A 1.0001 1.0001 0 0 0 29.158203 49.369141 z M 25.607422 52.921875 A 1.0001 1.0001 0 0 0 24.910156 54.638672 L 26.324219 56.054688 A 1.0001 1.0001 0 1 0 27.738281 54.640625 L 26.324219 53.224609 A 1.0001 1.0001 0 0 0 25.607422 52.921875 z"/></svg>